
<svg width="256" height="256" viewBox="0 0 256 256" fill="none" xmlns="http://www.w3.org/2000/svg">
  <!-- Background Circle -->
  <circle cx="128" cy="128" r="128" fill="url(#avatarGradient)"/>
  
  <!-- Face Shape -->
  <ellipse cx="128" cy="140" rx="80" ry="85" fill="#FDB4A6"/>
  
  <!-- Hair -->
  <path d="M50 120 Q50 50 128 50 Q206 50 206 120 Q206 100 180 90 Q150 80 128 85 Q106 80 76 90 Q50 100 50 120" fill="#4A3728"/>
  
  <!-- Eyes -->
  <ellipse cx="108" cy="125" rx="8" ry="12" fill="#2C1810"/>
  <ellipse cx="148" cy="125" rx="8" ry="12" fill="#2C1810"/>
  <ellipse cx="108" cy="123" rx="3" ry="4" fill="white"/>
  <ellipse cx="148" cy="123" rx="3" ry="4" fill="white"/>
  
  <!-- Nose -->
  <ellipse cx="128" cy="140" rx="4" ry="6" fill="#F4A79D"/>
  
  <!-- Mouth -->
  <path d="M118 155 Q128 165 138 155" stroke="#2C1810" stroke-width="3" fill="none" stroke-linecap="round"/>
  
  <!-- Shirt/Clothing -->
  <path d="M48 256 Q48 200 80 180 Q128 160 176 180 Q208 200 208 256 Z" fill="url(#shirtGradient)"/>
  
  <!-- Tech Elements -->
  <circle cx="80" cy="200" r="3" fill="#00FF88" opacity="0.8"/>
  <circle cx="176" cy="210" r="2" fill="#FF6B9D" opacity="0.8"/>
  <rect x="200" y="180" width="4" height="4" fill="#FFD93D" opacity="0.8"/>
  
  <defs>
    <linearGradient id="avatarGradient" x1="0%" y1="0%" x2="100%" y2="100%">
      <stop offset="0%" style="stop-color:#667eea;stop-opacity:1" />
      <stop offset="50%" style="stop-color:#764ba2;stop-opacity:1" />
      <stop offset="100%" style="stop-color:#6B73FF;stop-opacity:1" />
    </linearGradient>
    <linearGradient id="shirtGradient" x1="0%" y1="0%" x2="100%" y2="100%">
      <stop offset="0%" style="stop-color:#1a1a2e;stop-opacity:1" />
      <stop offset="100%" style="stop-color:#16213e;stop-opacity:1" />
    </linearGradient>
  </defs>
</svg>
